<svg width="25" height="25" viewBox="0 0 512 512" fill="none" xmlns="http://www.w3.org/2000/svg">
<path d="M30.1832 45.2545L11.0285 17.5277L9.28717 14.2657H15.0916H119.572L190.386 15.353L228.696 20.246L264.017 27.8387C264.074 27.8511 264.13 27.8685 264.185 27.8907L295.949 40.8729C296.001 40.8944 296.052 40.9203 296.1 40.9504L320.324 56.0761C320.379 56.1105 320.43 56.1501 320.478 56.1945L345.279 79.4244C345.337 79.4781 345.387 79.5384 345.431 79.6041L362.13 104.954C362.176 105.023 362.212 105.097 362.239 105.175L371.437 131.557C371.469 131.65 371.488 131.747 371.492 131.845L372.552 157.678C372.588 158.55 371.568 159.046 370.904 158.479L352.911 143.114L336.659 130.066L315.256 117.063C315.207 117.033 315.155 117.007 315.102 116.986L290.303 107.263C290.25 107.243 290.195 107.226 290.139 107.215L261.284 101.269C261.229 101.258 261.173 101.251 261.116 101.249L229.276 100.164H195.03L146.272 101.252L108.08 97.4578C108.002 97.4501 107.926 97.4332 107.852 97.4075L76.7404 86.615C76.6598 86.587 76.583 86.5489 76.5121 86.5014L52.5038 70.4394C52.3286 70.3221 52.1661 70.1867 52.0193 70.0354L40.6313 58.3024L30.1832 45.2545Z" fill="url(#paint0_linear_216_42)"/>
<path d="M342.463 481.011L361.618 508.738L363.359 512H357.555H253.075L182.26 510.913L143.951 506.02L108.63 498.427C108.572 498.415 108.516 498.397 108.462 498.375L76.698 485.393C76.6455 485.371 76.5948 485.345 76.5467 485.315L52.3231 470.19C52.268 470.155 52.2165 470.116 52.1691 470.071L27.3675 446.841C27.3101 446.788 27.2593 446.727 27.216 446.662L10.5165 421.312C10.4711 421.243 10.4344 421.169 10.4073 421.091L1.20984 394.709C1.17749 394.616 1.159 394.519 1.15497 394.421L0.0941772 368.588C0.0583496 367.716 1.07892 367.22 1.74274 367.786L19.7353 383.152L35.9878 396.2L57.3905 409.203C57.4396 409.233 57.4912 409.258 57.5447 409.279L82.344 419.002C82.3969 419.023 82.4515 419.039 82.5072 419.051L111.363 424.997C111.418 425.008 111.474 425.015 111.531 425.017L143.37 426.101H177.617L226.374 425.014L264.566 428.808C264.644 428.816 264.721 428.833 264.795 428.858L295.906 439.651C295.987 439.679 296.064 439.717 296.135 439.764L320.143 455.826C320.318 455.944 320.481 456.079 320.627 456.23L332.015 467.963L342.463 481.011Z" fill="url(#paint1_linear_216_42)"/>
<path d="M318.593 141.316L285.071 124.535C285.023 124.511 284.973 124.491 284.922 124.475L271.068 120.149L255.396 117.431L239.144 116.344L219.409 115.257L232.122 126.082C232.16 126.114 232.195 126.148 232.227 126.185L242.492 137.936C242.581 138.038 242.648 138.157 242.69 138.285L246.641 150.444C246.673 150.544 246.69 150.648 246.69 150.753V171.605C246.69 171.732 246.665 171.858 246.618 171.976L239.818 188.961C239.756 189.114 239.658 189.25 239.531 189.356L223.58 202.696C223.508 202.756 223.428 202.805 223.343 202.843L202.667 211.988C202.606 212.015 202.543 212.036 202.478 212.05L183.836 216.158C183.289 216.279 182.75 215.927 182.64 215.378L181.125 207.806C181.108 207.722 181.08 207.64 181.042 207.563L174.714 194.631L166.677 182.263C166.618 182.173 166.545 182.093 166.461 182.026L155.082 172.967C155.014 172.912 154.938 172.867 154.858 172.832L138.809 165.853C138.754 165.829 138.697 165.81 138.639 165.797L103.9 157.662L62.1077 150.595V251.19C62.1077 251.519 61.9455 251.827 61.6739 252.014L44.7793 263.618C44.7228 263.657 44.6705 263.701 44.6231 263.751L29.6671 279.376C29.6243 279.42 29.5857 279.469 29.5519 279.521L16.8329 299.015L4.73057 320.066C4.67301 320.166 4.63322 320.276 4.61299 320.389L0.10094 345.746C0.038461 346.097 0.167704 346.455 0.440134 346.685L29.6028 371.322L52.753 388.126C52.798 388.159 52.8456 388.188 52.8954 388.212L81.1567 402.258C81.227 402.293 81.3011 402.319 81.3776 402.337L114.253 409.9C114.316 409.915 114.381 409.923 114.445 409.925L148.594 411.009L132.486 398.077C132.39 398 132.31 397.907 132.249 397.802L122.583 381.294C122.511 381.171 122.467 381.034 122.452 380.893L120.182 359.107C120.163 358.918 120.197 358.727 120.282 358.557L132.22 334.596C132.3 334.437 132.42 334.301 132.57 334.204L158.886 317.057C158.989 316.99 159.104 316.942 159.224 316.917L184.582 311.519L196.715 338.036C196.752 338.117 196.8 338.193 196.857 338.261L207.102 350.522C207.179 350.615 207.273 350.693 207.379 350.752L221.624 358.758C221.695 358.797 221.77 358.828 221.848 358.85L257.138 368.603L307.636 377.302V276.648C307.636 276.352 307.768 276.071 307.995 275.881L329.056 258.287C329.094 258.256 329.129 258.221 329.162 258.185L346.454 238.749C346.502 238.695 346.544 238.636 346.579 238.573L358.716 216.921L366.206 198.574C366.243 198.483 366.266 198.387 366.275 198.29L367.954 180.477C367.984 180.148 367.852 179.826 367.599 179.615L341.302 157.662L318.73 141.399C318.687 141.368 318.641 141.34 318.593 141.316Z" fill="url(#paint2_linear_216_42)"/>
<path d="M366.262 21.7465L337.82 9.24227L312.86 3.26198L284.419 0L307.636 10.8733L327.952 23.9212L344.785 41.862L363.359 63.6086L377.87 84.8114L388.319 103.296L395.284 123.411L399.347 148.964L398.186 177.234L390.06 201.699L379.031 237.037L365.681 271.288L354.653 304.995L345.946 335.984L342.463 358.818L341.883 386.001L344.205 405.029L327.372 397.418L307.056 395.243L275.131 396.33L248.431 401.223L271.649 405.029L294.286 412.096L314.602 424.057L332.596 436.018L350.59 456.133L366.842 477.336L377.987 494.037L384.859 511.739L412.349 505.302L458.738 497.256L512 490.819L488.736 474.074L472.483 455.046L456.811 431.125L442.3 404.485L434.754 378.389L437.076 347.944L445.783 313.15L459.713 278.355L475.385 235.95L487.575 194.088L489.897 176.147V162.555L487.575 148.964L481.77 129.935L470.742 107.645L452.748 84.8114L424.887 60.3466L398.186 39.6874L366.262 21.7465Z" fill="url(#paint3_linear_216_42)"/>
<defs>
<linearGradient id="paint0_linear_216_42" x1="190.967" y1="14.2657" x2="190.967" y2="159.967" gradientUnits="userSpaceOnUse">
<stop stop-color="#662079"/>
<stop offset="0.48" stop-color="#7978BF"/>
<stop offset="1" stop-color="#020062"/>
</linearGradient>
<linearGradient id="paint1_linear_216_42" x1="181.68" y1="512" x2="181.68" y2="366.298" gradientUnits="userSpaceOnUse">
<stop stop-color="#662079"/>
<stop offset="0.48" stop-color="#7978BF"/>
<stop offset="1" stop-color="#020062"/>
</linearGradient>
<linearGradient id="paint2_linear_216_42" x1="184.001" y1="115.257" x2="184.001" y2="411.009" gradientUnits="userSpaceOnUse">
<stop stop-color="#662079"/>
<stop offset="0.48" stop-color="#7978BF"/>
<stop offset="1" stop-color="#020062"/>
</linearGradient>
<linearGradient id="paint3_linear_216_42" x1="380.215" y1="0" x2="380.215" y2="511.739" gradientUnits="userSpaceOnUse">
<stop stop-color="#662079"/>
<stop offset="0.48" stop-color="#7978BF"/>
<stop offset="1" stop-color="#020062"/>
</linearGradient>
</defs>
</svg>
